<svg xmlns="http://www.w3.org/2000/svg" width="1024" height="1024" viewBox="0 0 1024 1024">
  <defs>
    <linearGradient id="bg" x1="180" y1="90" x2="844" y2="934" gradientUnits="userSpaceOnUse">
      <stop offset="0" stop-color="#f8f9fb"/>
      <stop offset="1" stop-color="#dfe4ea"/>
    </linearGradient>
    <filter id="shadow" x="-20%" y="-20%" width="140%" height="140%">
      <feDropShadow dx="0" dy="34" stdDeviation="36" flood-color="#111111" flood-opacity="0.24"/>
    </filter>
  </defs>

  <rect width="1024" height="1024" rx="228" fill="url(#bg)"/>
  <rect x="112" y="112" width="800" height="800" rx="180" fill="#ffffff" opacity="0.72"/>

  <g filter="url(#shadow)">
    <rect x="220" y="274" width="584" height="476" rx="88" fill="#151515"/>
    <rect x="274" y="328" width="476" height="274" rx="46" fill="#f8f9fb"/>
    <rect x="344" y="646" width="336" height="42" rx="21" fill="#f8f9fb"/>
  </g>

  <circle cx="512" cy="465" r="96" fill="#17b890"/>
  <path d="M482 410L584 465L482 520V410Z" fill="#151515"/>

  <path d="M318 464L390 392V440H444V488H390V536L318 464Z" fill="#ed4d6e"/>
  <path d="M706 464L634 392V440H580V488H634V536L706 464Z" fill="#f2c94c"/>
</svg>
